<svg xmlns="http://www.w3.org/2000/svg" xmlns:xlink="http://www.w3.org/1999/xlink" width="500" zoomAndPan="magnify" viewBox="0 0 375 374.999991" height="500" preserveAspectRatio="xMidYMid meet" version="1.0"><defs><g/><clipPath id="id1"><path d="M 118.175781 117 L 256.925781 117 L 256.925781 210.703125 L 118.175781 210.703125 Z M 118.175781 117 " clip-rule="nonzero"/></clipPath><clipPath id="id2"><path d="M 135 90.703125 L 240 90.703125 L 240 143 L 135 143 Z M 135 90.703125 " clip-rule="nonzero"/></clipPath></defs><path fill="#000000" d="M 187.5 0 C 83.945312 0 0 83.945312 0 187.5 C 0 291.054688 83.945312 375 187.5 375 C 291.054688 375 375 291.054688 375 187.5 C 375 83.945312 291.054688 0 187.5 0 " fill-opacity="1" fill-rule="nonzero"/><g clip-path="url(#id1)"><path fill="#ffde59" d="M 187.550781 158.953125 L 118.175781 117.269531 L 118.175781 210.585938 L 165.28125 210.585938 L 165.28125 181.414062 L 148.332031 171.226562 L 148.332031 193.613281 L 135.125 193.613281 L 135.125 147.246094 L 187.550781 178.753906 L 239.976562 147.246094 L 239.976562 193.613281 L 226.769531 193.613281 L 226.769531 171.226562 L 209.820312 181.414062 L 209.820312 210.585938 L 256.925781 210.585938 L 256.925781 117.269531 Z M 187.550781 158.953125 " fill-opacity="1" fill-rule="nonzero"/></g><g clip-path="url(#id2)"><path fill="#ffde59" d="M 239.976562 110.613281 L 239.976562 90.820312 L 187.550781 122.320312 L 135.125 90.820312 L 135.125 110.613281 L 187.550781 142.117188 Z M 239.976562 110.613281 " fill-opacity="1" fill-rule="nonzero"/></g><g fill="#ffde59" fill-opacity="1"><g transform="translate(110.717963, 285.370791)"><g><path d="M 4.765625 -9.5625 C 4.878906 -9.507812 4.957031 -9.425781 5 -9.3125 C 5.050781 -9.207031 5.054688 -9.09375 5.015625 -8.96875 L 3.359375 -4.8125 L 3.359375 -0.390625 C 3.359375 -0.253906 3.316406 -0.144531 3.234375 -0.0625 C 3.148438 0.0195312 3.039062 0.0625 2.90625 0.0625 C 2.789062 0.0625 2.6875 0.0195312 2.59375 -0.0625 C 2.5 -0.144531 2.453125 -0.253906 2.453125 -0.390625 L 2.453125 -4.8125 L 0.8125 -8.96875 C 0.757812 -9.09375 0.757812 -9.207031 0.8125 -9.3125 C 0.863281 -9.425781 0.945312 -9.507812 1.0625 -9.5625 C 1.1875 -9.613281 1.304688 -9.613281 1.421875 -9.5625 C 1.535156 -9.507812 1.613281 -9.425781 1.65625 -9.3125 L 2.90625 -6.140625 L 4.15625 -9.3125 C 4.195312 -9.425781 4.273438 -9.507812 4.390625 -9.5625 C 4.515625 -9.613281 4.640625 -9.613281 4.765625 -9.5625 Z M 4.765625 -9.5625 "/></g></g></g><g fill="#ffde59" fill-opacity="1"><g transform="translate(119.114184, 285.370791)"><g/></g></g><g fill="#ffde59" fill-opacity="1"><g transform="translate(128.212191, 285.370791)"><g><path d="M 4.796875 -8.65625 C 4.972656 -8.375 5.109375 -8.066406 5.203125 -7.734375 C 5.296875 -7.398438 5.34375 -7.054688 5.34375 -6.703125 C 5.34375 -6.347656 5.296875 -6 5.203125 -5.65625 C 5.109375 -5.320312 4.972656 -5.019531 4.796875 -4.75 C 4.597656 -4.445312 4.367188 -4.210938 4.109375 -4.046875 C 3.859375 -3.878906 3.59375 -3.796875 3.3125 -3.796875 L 1.84375 -3.796875 L 1.84375 -0.390625 C 1.84375 -0.253906 1.800781 -0.144531 1.71875 -0.0625 C 1.632812 0.0195312 1.523438 0.0625 1.390625 0.0625 C 1.265625 0.0625 1.15625 0.0195312 1.0625 -0.0625 C 0.976562 -0.144531 0.9375 -0.253906 0.9375 -0.390625 L 0.9375 -9.140625 C 0.9375 -9.316406 1.015625 -9.453125 1.171875 -9.546875 C 1.234375 -9.597656 1.3125 -9.625 1.40625 -9.625 L 3.3125 -9.625 C 3.59375 -9.625 3.859375 -9.535156 4.109375 -9.359375 C 4.367188 -9.191406 4.597656 -8.957031 4.796875 -8.65625 Z M 4.015625 -5.234375 C 4.148438 -5.429688 4.25 -5.660156 4.3125 -5.921875 C 4.382812 -6.179688 4.421875 -6.441406 4.421875 -6.703125 C 4.421875 -6.960938 4.382812 -7.21875 4.3125 -7.46875 C 4.25 -7.726562 4.148438 -7.957031 4.015625 -8.15625 C 3.910156 -8.332031 3.796875 -8.46875 3.671875 -8.5625 C 3.546875 -8.65625 3.425781 -8.703125 3.3125 -8.703125 L 1.84375 -8.703125 L 1.84375 -4.703125 L 3.3125 -4.703125 C 3.425781 -4.703125 3.546875 -4.75 3.671875 -4.84375 C 3.796875 -4.9375 3.910156 -5.066406 4.015625 -5.234375 Z M 4.015625 -5.234375 "/></g></g></g><g fill="#ffde59" fill-opacity="1"><g transform="translate(137.011289, 285.370791)"><g><path d="M 1.765625 0.0625 C 1.640625 0.0625 1.53125 0.0195312 1.4375 -0.0625 C 1.351562 -0.15625 1.3125 -0.265625 1.3125 -0.390625 L 1.3125 -9.15625 C 1.3125 -9.269531 1.351562 -9.375 1.4375 -9.46875 C 1.53125 -9.5625 1.640625 -9.609375 1.765625 -9.609375 C 1.890625 -9.609375 1.992188 -9.5625 2.078125 -9.46875 C 2.171875 -9.375 2.21875 -9.269531 2.21875 -9.15625 L 2.21875 -0.390625 C 2.21875 -0.265625 2.171875 -0.15625 2.078125 -0.0625 C 1.992188 0.0195312 1.890625 0.0625 1.765625 0.0625 Z M 1.765625 0.0625 "/></g></g></g><g fill="#ffde59" fill-opacity="1"><g transform="translate(143.315152, 285.370791)"><g><path d="M 4.90625 -0.859375 C 5.039062 -0.859375 5.148438 -0.8125 5.234375 -0.71875 C 5.328125 -0.625 5.375 -0.515625 5.375 -0.390625 C 5.375 -0.265625 5.328125 -0.15625 5.234375 -0.0625 C 5.148438 0.0195312 5.039062 0.0625 4.90625 0.0625 L 1.46875 0.0625 C 1.34375 0.0625 1.234375 0.0195312 1.140625 -0.0625 C 1.046875 -0.15625 1 -0.265625 1 -0.390625 L 1 -9.15625 C 1 -9.269531 1.046875 -9.375 1.140625 -9.46875 C 1.234375 -9.5625 1.34375 -9.609375 1.46875 -9.609375 L 4.90625 -9.609375 C 5.039062 -9.609375 5.148438 -9.5625 5.234375 -9.46875 C 5.328125 -9.375 5.375 -9.269531 5.375 -9.15625 C 5.375 -9.019531 5.328125 -8.90625 5.234375 -8.8125 C 5.148438 -8.726562 5.039062 -8.6875 4.90625 -8.6875 L 1.921875 -8.6875 L 1.921875 -4.6875 L 4.171875 -4.6875 C 4.304688 -4.6875 4.414062 -4.640625 4.5 -4.546875 C 4.582031 -4.460938 4.625 -4.351562 4.625 -4.21875 C 4.625 -4.101562 4.582031 -4 4.5 -3.90625 C 4.414062 -3.8125 4.304688 -3.765625 4.171875 -3.765625 L 1.921875 -3.765625 L 1.921875 -0.859375 Z M 4.90625 -0.859375 "/></g></g></g><g fill="#ffde59" fill-opacity="1"><g transform="translate(152.10125, 285.370791)"><g><path d="M 5.59375 -0.109375 C 5.59375 -0.109375 5.585938 -0.109375 5.578125 -0.109375 C 5.566406 -0.109375 5.5625 -0.101562 5.5625 -0.09375 L 5.546875 -0.09375 C 5.546875 -0.09375 5.539062 -0.0859375 5.53125 -0.078125 C 5.53125 -0.0664062 5.53125 -0.0625 5.53125 -0.0625 L 5.515625 -0.046875 L 5.5 -0.046875 C 5.5 -0.0351562 5.492188 -0.03125 5.484375 -0.03125 L 5.453125 -0.03125 L 5.453125 -0.015625 C 5.410156 0.00390625 5.375 0.015625 5.34375 0.015625 C 5.320312 0.0234375 5.289062 0.03125 5.25 0.03125 L 5.1875 0.03125 C 5.164062 0.03125 5.148438 0.0234375 5.140625 0.015625 L 5.125 0.015625 C 5.101562 0.00390625 5.085938 0 5.078125 0 C 5.078125 0 5.070312 -0.00390625 5.0625 -0.015625 C 5.050781 -0.0234375 5.039062 -0.03125 5.03125 -0.03125 C 5.019531 -0.03125 5.007812 -0.03125 5 -0.03125 L 4.984375 -0.046875 C 4.984375 -0.046875 4.984375 -0.0507812 4.984375 -0.0625 L 4.96875 -0.0625 C 4.96875 -0.0703125 4.960938 -0.078125 4.953125 -0.078125 C 4.953125 -0.078125 4.945312 -0.0820312 4.9375 -0.09375 L 4.921875 -0.109375 L 4.90625 -0.109375 L 4.90625 -0.125 C 4.894531 -0.132812 4.890625 -0.144531 4.890625 -0.15625 C 4.878906 -0.15625 4.875 -0.160156 4.875 -0.171875 L 4.859375 -0.1875 C 4.847656 -0.1875 4.84375 -0.195312 4.84375 -0.21875 C 4.84375 -0.226562 4.84375 -0.234375 4.84375 -0.234375 C 4.84375 -0.242188 4.835938 -0.253906 4.828125 -0.265625 L 1.90625 -6.96875 L 1.90625 -0.421875 C 1.90625 -0.304688 1.863281 -0.203125 1.78125 -0.109375 C 1.695312 -0.015625 1.585938 0.03125 1.453125 0.03125 C 1.335938 0.03125 1.234375 -0.015625 1.140625 -0.109375 C 1.046875 -0.203125 1 -0.304688 1 -0.421875 L 1 -9.265625 L 1.015625 -9.265625 L 1.015625 -9.328125 C 1.015625 -9.328125 1.019531 -9.328125 1.03125 -9.328125 L 1.03125 -9.359375 C 1.039062 -9.359375 1.046875 -9.363281 1.046875 -9.375 C 1.046875 -9.382812 1.046875 -9.390625 1.046875 -9.390625 C 1.046875 -9.390625 1.046875 -9.394531 1.046875 -9.40625 L 1.0625 -9.40625 L 1.0625 -9.421875 C 1.0625 -9.429688 1.066406 -9.4375 1.078125 -9.4375 L 1.078125 -9.453125 C 1.078125 -9.453125 1.082031 -9.457031 1.09375 -9.46875 L 1.109375 -9.484375 C 1.109375 -9.484375 1.113281 -9.484375 1.125 -9.484375 C 1.125 -9.492188 1.125 -9.5 1.125 -9.5 C 1.125 -9.5 1.125 -9.503906 1.125 -9.515625 C 1.132812 -9.515625 1.140625 -9.519531 1.140625 -9.53125 L 1.15625 -9.53125 L 1.1875 -9.5625 C 1.195312 -9.5625 1.203125 -9.5625 1.203125 -9.5625 L 1.21875 -9.578125 L 1.234375 -9.578125 L 1.25 -9.59375 L 1.265625 -9.59375 C 1.273438 -9.613281 1.289062 -9.625 1.3125 -9.625 C 1.332031 -9.625 1.347656 -9.628906 1.359375 -9.640625 L 1.375 -9.640625 C 1.394531 -9.640625 1.429688 -9.640625 1.484375 -9.640625 L 1.515625 -9.640625 C 1.523438 -9.640625 1.53125 -9.640625 1.53125 -9.640625 L 1.59375 -9.640625 C 1.59375 -9.628906 1.597656 -9.625 1.609375 -9.625 C 1.609375 -9.625 1.613281 -9.617188 1.625 -9.609375 L 1.65625 -9.609375 L 1.65625 -9.59375 C 1.664062 -9.59375 1.675781 -9.585938 1.6875 -9.578125 L 1.703125 -9.578125 C 1.703125 -9.566406 1.707031 -9.5625 1.71875 -9.5625 L 1.734375 -9.5625 L 1.734375 -9.546875 L 1.75 -9.546875 C 1.75 -9.535156 1.753906 -9.53125 1.765625 -9.53125 C 1.765625 -9.519531 1.769531 -9.515625 1.78125 -9.515625 C 1.789062 -9.503906 1.796875 -9.492188 1.796875 -9.484375 C 1.804688 -9.484375 1.8125 -9.484375 1.8125 -9.484375 L 1.8125 -9.46875 L 1.828125 -9.46875 L 1.828125 -9.453125 C 1.828125 -9.441406 1.832031 -9.4375 1.84375 -9.4375 L 1.84375 -9.421875 C 1.84375 -9.421875 1.847656 -9.414062 1.859375 -9.40625 C 1.867188 -9.40625 1.875 -9.398438 1.875 -9.390625 C 1.875 -9.390625 1.878906 -9.378906 1.890625 -9.359375 L 4.796875 -2.640625 L 4.796875 -9.1875 C 4.796875 -9.3125 4.835938 -9.414062 4.921875 -9.5 C 5.015625 -9.59375 5.125 -9.640625 5.25 -9.640625 C 5.375 -9.640625 5.476562 -9.59375 5.5625 -9.5 C 5.65625 -9.414062 5.703125 -9.3125 5.703125 -9.1875 L 5.703125 -0.34375 C 5.703125 -0.34375 5.695312 -0.34375 5.6875 -0.34375 L 5.6875 -0.265625 C 5.675781 -0.265625 5.671875 -0.257812 5.671875 -0.25 L 5.671875 -0.234375 L 5.65625 -0.21875 L 5.65625 -0.203125 C 5.644531 -0.203125 5.640625 -0.195312 5.640625 -0.1875 L 5.625 -0.1875 L 5.625 -0.171875 L 5.609375 -0.15625 C 5.609375 -0.144531 5.609375 -0.140625 5.609375 -0.140625 C 5.609375 -0.128906 5.601562 -0.125 5.59375 -0.125 C 5.59375 -0.125 5.59375 -0.117188 5.59375 -0.109375 Z M 5.59375 -0.109375 "/></g></g></g><g fill="#ffde59" fill-opacity="1"><g transform="translate(161.290226, 285.370791)"><g><path d="M 3.0625 0.109375 C 2.457031 0.109375 1.945312 -0.0625 1.53125 -0.40625 C 1.363281 -0.539062 1.203125 -0.75 1.046875 -1.03125 C 0.890625 -1.3125 0.8125 -1.695312 0.8125 -2.1875 C 0.8125 -2.3125 0.851562 -2.414062 0.9375 -2.5 C 1.03125 -2.59375 1.144531 -2.640625 1.28125 -2.640625 C 1.394531 -2.640625 1.492188 -2.59375 1.578125 -2.5 C 1.671875 -2.414062 1.71875 -2.3125 1.71875 -2.1875 C 1.71875 -1.894531 1.757812 -1.65625 1.84375 -1.46875 C 1.925781 -1.289062 2.03125 -1.148438 2.15625 -1.046875 C 2.289062 -0.953125 2.4375 -0.882812 2.59375 -0.84375 C 2.75 -0.8125 2.90625 -0.796875 3.0625 -0.796875 C 3.15625 -0.796875 3.28125 -0.804688 3.4375 -0.828125 C 3.59375 -0.847656 3.75 -0.90625 3.90625 -1 C 4.0625 -1.09375 4.195312 -1.226562 4.3125 -1.40625 C 4.4375 -1.59375 4.5 -1.851562 4.5 -2.1875 C 4.5 -2.507812 4.453125 -2.789062 4.359375 -3.03125 C 4.265625 -3.269531 4.140625 -3.484375 3.984375 -3.671875 C 3.828125 -3.867188 3.644531 -4.046875 3.4375 -4.203125 C 3.226562 -4.367188 3.003906 -4.53125 2.765625 -4.6875 C 2.554688 -4.832031 2.34375 -4.988281 2.125 -5.15625 C 1.914062 -5.320312 1.726562 -5.503906 1.5625 -5.703125 C 1.15625 -6.179688 0.945312 -6.734375 0.9375 -7.359375 C 0.9375 -7.390625 0.9375 -7.457031 0.9375 -7.5625 C 0.945312 -7.664062 0.960938 -7.789062 0.984375 -7.9375 C 1.066406 -8.375 1.242188 -8.738281 1.515625 -9.03125 C 1.898438 -9.4375 2.421875 -9.640625 3.078125 -9.640625 C 3.742188 -9.640625 4.257812 -9.4375 4.625 -9.03125 C 4.757812 -8.882812 4.863281 -8.710938 4.9375 -8.515625 C 5.019531 -8.328125 5.066406 -8.125 5.078125 -7.90625 C 5.097656 -7.75 5.101562 -7.613281 5.09375 -7.5 C 5.09375 -7.394531 5.085938 -7.332031 5.078125 -7.3125 C 5.054688 -7.207031 5.023438 -7.109375 4.984375 -7.015625 C 4.941406 -6.953125 4.890625 -6.894531 4.828125 -6.84375 C 4.773438 -6.789062 4.6875 -6.769531 4.5625 -6.78125 C 4.4375 -6.800781 4.347656 -6.847656 4.296875 -6.921875 C 4.242188 -6.992188 4.210938 -7.070312 4.203125 -7.15625 C 4.171875 -7.25 4.164062 -7.347656 4.1875 -7.453125 C 4.207031 -7.566406 4.207031 -7.679688 4.1875 -7.796875 C 4.164062 -7.890625 4.140625 -7.992188 4.109375 -8.109375 C 4.078125 -8.234375 4.019531 -8.34375 3.9375 -8.4375 C 3.757812 -8.644531 3.472656 -8.75 3.078125 -8.75 C 2.679688 -8.75 2.382812 -8.632812 2.1875 -8.40625 C 2.09375 -8.3125 2.019531 -8.203125 1.96875 -8.078125 C 1.914062 -7.960938 1.882812 -7.859375 1.875 -7.765625 C 1.84375 -7.640625 1.832031 -7.519531 1.84375 -7.40625 L 1.84375 -7.375 C 1.84375 -7.15625 1.875 -6.957031 1.9375 -6.78125 C 2.007812 -6.613281 2.109375 -6.453125 2.234375 -6.296875 C 2.367188 -6.148438 2.523438 -6.003906 2.703125 -5.859375 C 2.878906 -5.722656 3.078125 -5.570312 3.296875 -5.40625 C 3.546875 -5.238281 3.789062 -5.0625 4.03125 -4.875 C 4.269531 -4.695312 4.492188 -4.476562 4.703125 -4.21875 C 5.171875 -3.644531 5.40625 -2.96875 5.40625 -2.1875 C 5.40625 -1.789062 5.335938 -1.445312 5.203125 -1.15625 C 5.066406 -0.863281 4.890625 -0.625 4.671875 -0.4375 C 4.453125 -0.25 4.203125 -0.109375 3.921875 -0.015625 C 3.640625 0.0664062 3.351562 0.109375 3.0625 0.109375 Z M 3.0625 0.109375 "/></g></g></g><g fill="#ffde59" fill-opacity="1"><g transform="translate(169.972354, 285.370791)"><g><path d="M 4.984375 -0.34375 C 5.003906 -0.21875 4.976562 -0.101562 4.90625 0 C 4.84375 0.09375 4.753906 0.15625 4.640625 0.1875 L 4.5625 0.1875 C 4.46875 0.1875 4.378906 0.148438 4.296875 0.078125 C 4.210938 0.015625 4.160156 -0.0625 4.140625 -0.15625 L 3.796875 -1.84375 L 1.6875 -1.84375 L 1.359375 -0.15625 C 1.335938 -0.0625 1.285156 0.015625 1.203125 0.078125 C 1.117188 0.148438 1.023438 0.1875 0.921875 0.1875 L 0.84375 0.1875 C 0.726562 0.15625 0.640625 0.09375 0.578125 0 C 0.515625 -0.101562 0.492188 -0.21875 0.515625 -0.34375 L 2.328125 -9.328125 C 2.335938 -9.359375 2.347656 -9.378906 2.359375 -9.390625 L 2.359375 -9.40625 C 2.367188 -9.457031 2.390625 -9.488281 2.421875 -9.5 L 2.421875 -9.53125 L 2.4375 -9.53125 L 2.4375 -9.5625 L 2.46875 -9.5625 C 2.488281 -9.582031 2.503906 -9.597656 2.515625 -9.609375 C 2.535156 -9.617188 2.5625 -9.628906 2.59375 -9.640625 C 2.613281 -9.648438 2.632812 -9.65625 2.65625 -9.65625 C 2.675781 -9.65625 2.695312 -9.660156 2.71875 -9.671875 L 2.765625 -9.671875 C 2.785156 -9.660156 2.804688 -9.65625 2.828125 -9.65625 C 2.847656 -9.65625 2.867188 -9.648438 2.890625 -9.640625 L 2.90625 -9.640625 C 2.9375 -9.628906 2.957031 -9.617188 2.96875 -9.609375 C 2.988281 -9.597656 3.007812 -9.582031 3.03125 -9.5625 L 3.0625 -9.5625 L 3.0625 -9.53125 C 3.0625 -9.53125 3.066406 -9.519531 3.078125 -9.5 C 3.085938 -9.488281 3.097656 -9.472656 3.109375 -9.453125 C 3.128906 -9.441406 3.140625 -9.425781 3.140625 -9.40625 L 3.140625 -9.390625 C 3.148438 -9.378906 3.15625 -9.359375 3.15625 -9.328125 Z M 3.625 -2.6875 L 2.734375 -7.078125 L 1.859375 -2.6875 Z M 3.625 -2.6875 "/></g></g></g><g fill="#ffde59" fill-opacity="1"><g transform="translate(178.069667, 285.370791)"><g/></g></g><g fill="#ffde59" fill-opacity="1"><g transform="translate(187.167673, 285.370791)"><g><path d="M 4.90625 -0.859375 C 5.039062 -0.859375 5.148438 -0.8125 5.234375 -0.71875 C 5.328125 -0.625 5.375 -0.515625 5.375 -0.390625 C 5.375 -0.265625 5.328125 -0.15625 5.234375 -0.0625 C 5.148438 0.0195312 5.039062 0.0625 4.90625 0.0625 L 1.46875 0.0625 C 1.34375 0.0625 1.234375 0.0195312 1.140625 -0.0625 C 1.046875 -0.15625 1 -0.265625 1 -0.390625 L 1 -9.15625 C 1 -9.269531 1.046875 -9.375 1.140625 -9.46875 C 1.234375 -9.5625 1.34375 -9.609375 1.46875 -9.609375 L 4.90625 -9.609375 C 5.039062 -9.609375 5.148438 -9.5625 5.234375 -9.46875 C 5.328125 -9.375 5.375 -9.269531 5.375 -9.15625 C 5.375 -9.019531 5.328125 -8.90625 5.234375 -8.8125 C 5.148438 -8.726562 5.039062 -8.6875 4.90625 -8.6875 L 1.921875 -8.6875 L 1.921875 -4.6875 L 4.171875 -4.6875 C 4.304688 -4.6875 4.414062 -4.640625 4.5 -4.546875 C 4.582031 -4.460938 4.625 -4.351562 4.625 -4.21875 C 4.625 -4.101562 4.582031 -4 4.5 -3.90625 C 4.414062 -3.8125 4.304688 -3.765625 4.171875 -3.765625 L 1.921875 -3.765625 L 1.921875 -0.859375 Z M 4.90625 -0.859375 "/></g></g></g><g fill="#ffde59" fill-opacity="1"><g transform="translate(195.953771, 285.370791)"><g><path d="M 5.59375 -0.109375 C 5.59375 -0.109375 5.585938 -0.109375 5.578125 -0.109375 C 5.566406 -0.109375 5.5625 -0.101562 5.5625 -0.09375 L 5.546875 -0.09375 C 5.546875 -0.09375 5.539062 -0.0859375 5.53125 -0.078125 C 5.53125 -0.0664062 5.53125 -0.0625 5.53125 -0.0625 L 5.515625 -0.046875 L 5.5 -0.046875 C 5.5 -0.0351562 5.492188 -0.03125 5.484375 -0.03125 L 5.453125 -0.03125 L 5.453125 -0.015625 C 5.410156 0.00390625 5.375 0.015625 5.34375 0.015625 C 5.320312 0.0234375 5.289062 0.03125 5.25 0.03125 L 5.1875 0.03125 C 5.164062 0.03125 5.148438 0.0234375 5.140625 0.015625 L 5.125 0.015625 C 5.101562 0.00390625 5.085938 0 5.078125 0 C 5.078125 0 5.070312 -0.00390625 5.0625 -0.015625 C 5.050781 -0.0234375 5.039062 -0.03125 5.03125 -0.03125 C 5.019531 -0.03125 5.007812 -0.03125 5 -0.03125 L 4.984375 -0.046875 C 4.984375 -0.046875 4.984375 -0.0507812 4.984375 -0.0625 L 4.96875 -0.0625 C 4.96875 -0.0703125 4.960938 -0.078125 4.953125 -0.078125 C 4.953125 -0.078125 4.945312 -0.0820312 4.9375 -0.09375 L 4.921875 -0.109375 L 4.90625 -0.109375 L 4.90625 -0.125 C 4.894531 -0.132812 4.890625 -0.144531 4.890625 -0.15625 C 4.878906 -0.15625 4.875 -0.160156 4.875 -0.171875 L 4.859375 -0.1875 C 4.847656 -0.1875 4.84375 -0.195312 4.84375 -0.21875 C 4.84375 -0.226562 4.84375 -0.234375 4.84375 -0.234375 C 4.84375 -0.242188 4.835938 -0.253906 4.828125 -0.265625 L 1.90625 -6.96875 L 1.90625 -0.421875 C 1.90625 -0.304688 1.863281 -0.203125 1.78125 -0.109375 C 1.695312 -0.015625 1.585938 0.03125 1.453125 0.03125 C 1.335938 0.03125 1.234375 -0.015625 1.140625 -0.109375 C 1.046875 -0.203125 1 -0.304688 1 -0.421875 L 1 -9.265625 L 1.015625 -9.265625 L 1.015625 -9.328125 C 1.015625 -9.328125 1.019531 -9.328125 1.03125 -9.328125 L 1.03125 -9.359375 C 1.039062 -9.359375 1.046875 -9.363281 1.046875 -9.375 C 1.046875 -9.382812 1.046875 -9.390625 1.046875 -9.390625 C 1.046875 -9.390625 1.046875 -9.394531 1.046875 -9.40625 L 1.0625 -9.40625 L 1.0625 -9.421875 C 1.0625 -9.429688 1.066406 -9.4375 1.078125 -9.4375 L 1.078125 -9.453125 C 1.078125 -9.453125 1.082031 -9.457031 1.09375 -9.46875 L 1.109375 -9.484375 C 1.109375 -9.484375 1.113281 -9.484375 1.125 -9.484375 C 1.125 -9.492188 1.125 -9.5 1.125 -9.5 C 1.125 -9.5 1.125 -9.503906 1.125 -9.515625 C 1.132812 -9.515625 1.140625 -9.519531 1.140625 -9.53125 L 1.15625 -9.53125 L 1.1875 -9.5625 C 1.195312 -9.5625 1.203125 -9.5625 1.203125 -9.5625 L 1.21875 -9.578125 L 1.234375 -9.578125 L 1.25 -9.59375 L 1.265625 -9.59375 C 1.273438 -9.613281 1.289062 -9.625 1.3125 -9.625 C 1.332031 -9.625 1.347656 -9.628906 1.359375 -9.640625 L 1.375 -9.640625 C 1.394531 -9.640625 1.429688 -9.640625 1.484375 -9.640625 L 1.515625 -9.640625 C 1.523438 -9.640625 1.53125 -9.640625 1.53125 -9.640625 L 1.59375 -9.640625 C 1.59375 -9.628906 1.597656 -9.625 1.609375 -9.625 C 1.609375 -9.625 1.613281 -9.617188 1.625 -9.609375 L 1.65625 -9.609375 L 1.65625 -9.59375 C 1.664062 -9.59375 1.675781 -9.585938 1.6875 -9.578125 L 1.703125 -9.578125 C 1.703125 -9.566406 1.707031 -9.5625 1.71875 -9.5625 L 1.734375 -9.5625 L 1.734375 -9.546875 L 1.75 -9.546875 C 1.75 -9.535156 1.753906 -9.53125 1.765625 -9.53125 C 1.765625 -9.519531 1.769531 -9.515625 1.78125 -9.515625 C 1.789062 -9.503906 1.796875 -9.492188 1.796875 -9.484375 C 1.804688 -9.484375 1.8125 -9.484375 1.8125 -9.484375 L 1.8125 -9.46875 L 1.828125 -9.46875 L 1.828125 -9.453125 C 1.828125 -9.441406 1.832031 -9.4375 1.84375 -9.4375 L 1.84375 -9.421875 C 1.84375 -9.421875 1.847656 -9.414062 1.859375 -9.40625 C 1.867188 -9.40625 1.875 -9.398438 1.875 -9.390625 C 1.875 -9.390625 1.878906 -9.378906 1.890625 -9.359375 L 4.796875 -2.640625 L 4.796875 -9.1875 C 4.796875 -9.3125 4.835938 -9.414062 4.921875 -9.5 C 5.015625 -9.59375 5.125 -9.640625 5.25 -9.640625 C 5.375 -9.640625 5.476562 -9.59375 5.5625 -9.5 C 5.65625 -9.414062 5.703125 -9.3125 5.703125 -9.1875 L 5.703125 -0.34375 C 5.703125 -0.34375 5.695312 -0.34375 5.6875 -0.34375 L 5.6875 -0.265625 C 5.675781 -0.265625 5.671875 -0.257812 5.671875 -0.25 L 5.671875 -0.234375 L 5.65625 -0.21875 L 5.65625 -0.203125 C 5.644531 -0.203125 5.640625 -0.195312 5.640625 -0.1875 L 5.625 -0.1875 L 5.625 -0.171875 L 5.609375 -0.15625 C 5.609375 -0.144531 5.609375 -0.140625 5.609375 -0.140625 C 5.609375 -0.128906 5.601562 -0.125 5.59375 -0.125 C 5.59375 -0.125 5.59375 -0.117188 5.59375 -0.109375 Z M 5.59375 -0.109375 "/></g></g></g><g fill="#ffde59" fill-opacity="1"><g transform="translate(205.142747, 285.370791)"><g/></g></g><g fill="#ffde59" fill-opacity="1"><g transform="translate(214.240753, 285.370791)"><g><path d="M 3.03125 0.1875 C 2.375 0.1875 1.863281 -0.0195312 1.5 -0.4375 C 1.195312 -0.738281 1.007812 -1.148438 0.9375 -1.671875 C 0.914062 -1.816406 0.898438 -1.945312 0.890625 -2.0625 C 0.890625 -2.175781 0.894531 -2.253906 0.90625 -2.296875 L 0.90625 -7.390625 C 0.90625 -7.796875 0.96875 -8.144531 1.09375 -8.4375 C 1.21875 -8.726562 1.378906 -8.96875 1.578125 -9.15625 C 1.785156 -9.351562 2.015625 -9.492188 2.265625 -9.578125 C 2.515625 -9.671875 2.769531 -9.71875 3.03125 -9.71875 C 3.582031 -9.71875 4.054688 -9.546875 4.453125 -9.203125 C 4.609375 -9.054688 4.757812 -8.835938 4.90625 -8.546875 C 5.0625 -8.253906 5.140625 -7.867188 5.140625 -7.390625 C 5.140625 -7.265625 5.09375 -7.15625 5 -7.0625 C 4.914062 -6.96875 4.8125 -6.921875 4.6875 -6.921875 C 4.5625 -6.921875 4.453125 -6.96875 4.359375 -7.0625 C 4.265625 -7.15625 4.21875 -7.265625 4.21875 -7.390625 C 4.21875 -7.710938 4.164062 -7.96875 4.0625 -8.15625 C 3.96875 -8.351562 3.851562 -8.5 3.71875 -8.59375 C 3.59375 -8.6875 3.460938 -8.742188 3.328125 -8.765625 C 3.203125 -8.796875 3.101562 -8.8125 3.03125 -8.8125 C 2.71875 -8.8125 2.445312 -8.710938 2.21875 -8.515625 C 1.945312 -8.265625 1.8125 -7.890625 1.8125 -7.390625 L 1.8125 -2.25 C 1.8125 -2.238281 1.8125 -2.191406 1.8125 -2.109375 C 1.8125 -2.023438 1.820312 -1.921875 1.84375 -1.796875 C 1.863281 -1.679688 1.894531 -1.550781 1.9375 -1.40625 C 1.988281 -1.269531 2.066406 -1.148438 2.171875 -1.046875 C 2.359375 -0.835938 2.644531 -0.734375 3.03125 -0.734375 C 3.4375 -0.734375 3.734375 -0.84375 3.921875 -1.0625 C 4.015625 -1.164062 4.085938 -1.28125 4.140625 -1.40625 C 4.191406 -1.539062 4.226562 -1.664062 4.25 -1.78125 C 4.28125 -1.894531 4.296875 -1.988281 4.296875 -2.0625 C 4.296875 -2.144531 4.296875 -2.1875 4.296875 -2.1875 L 4.296875 -3.84375 L 3.375 -3.84375 C 3.25 -3.84375 3.140625 -3.890625 3.046875 -3.984375 C 2.953125 -4.078125 2.90625 -4.1875 2.90625 -4.3125 C 2.90625 -4.4375 2.953125 -4.539062 3.046875 -4.625 C 3.140625 -4.71875 3.25 -4.765625 3.375 -4.765625 L 5.203125 -4.765625 L 5.203125 -2.21875 C 5.210938 -2.1875 5.210938 -2.113281 5.203125 -2 C 5.203125 -1.882812 5.1875 -1.753906 5.15625 -1.609375 C 5.0625 -1.128906 4.878906 -0.738281 4.609375 -0.4375 C 4.210938 -0.0195312 3.6875 0.1875 3.03125 0.1875 Z M 3.03125 0.1875 "/></g></g></g><g fill="#ffde59" fill-opacity="1"><g transform="translate(223.039852, 285.370791)"><g><path d="M 5.703125 -0.578125 C 5.753906 -0.453125 5.757812 -0.328125 5.71875 -0.203125 C 5.675781 -0.0859375 5.59375 -0.0078125 5.46875 0.03125 C 5.4375 0.0390625 5.40625 0.046875 5.375 0.046875 C 5.34375 0.0546875 5.316406 0.0625 5.296875 0.0625 C 5.191406 0.0625 5.101562 0.0390625 5.03125 0 C 4.957031 -0.0390625 4.898438 -0.109375 4.859375 -0.203125 L 3.296875 -3.78125 L 1.953125 -3.78125 L 1.953125 -0.390625 C 1.953125 -0.253906 1.90625 -0.144531 1.8125 -0.0625 C 1.71875 0.0195312 1.609375 0.0625 1.484375 0.0625 C 1.359375 0.0625 1.25 0.0195312 1.15625 -0.0625 C 1.070312 -0.144531 1.03125 -0.253906 1.03125 -0.390625 L 1.03125 -9.140625 C 1.03125 -9.265625 1.070312 -9.375 1.15625 -9.46875 C 1.25 -9.5625 1.359375 -9.609375 1.484375 -9.609375 L 3.421875 -9.609375 C 3.691406 -9.609375 3.957031 -9.519531 4.21875 -9.34375 C 4.476562 -9.175781 4.707031 -8.941406 4.90625 -8.640625 C 5.070312 -8.367188 5.203125 -8.0625 5.296875 -7.71875 C 5.398438 -7.382812 5.453125 -7.039062 5.453125 -6.6875 C 5.453125 -6.332031 5.398438 -5.984375 5.296875 -5.640625 C 5.203125 -5.304688 5.070312 -5.003906 4.90625 -4.734375 C 4.6875 -4.398438 4.453125 -4.160156 4.203125 -4.015625 Z M 1.953125 -4.6875 L 3.421875 -4.6875 C 3.535156 -4.6875 3.65625 -4.734375 3.78125 -4.828125 C 3.90625 -4.929688 4.019531 -5.0625 4.125 -5.21875 C 4.25 -5.425781 4.347656 -5.65625 4.421875 -5.90625 C 4.492188 -6.164062 4.53125 -6.425781 4.53125 -6.6875 C 4.53125 -6.945312 4.492188 -7.207031 4.421875 -7.46875 C 4.347656 -7.726562 4.25 -7.957031 4.125 -8.15625 C 4.019531 -8.320312 3.90625 -8.453125 3.78125 -8.546875 C 3.65625 -8.640625 3.535156 -8.6875 3.421875 -8.6875 L 1.953125 -8.6875 Z M 1.953125 -4.6875 "/></g></g></g><g fill="#ffde59" fill-opacity="1"><g transform="translate(232.020888, 285.370791)"><g><path d="M 4.984375 -0.34375 C 5.003906 -0.21875 4.976562 -0.101562 4.90625 0 C 4.84375 0.09375 4.753906 0.15625 4.640625 0.1875 L 4.5625 0.1875 C 4.46875 0.1875 4.378906 0.148438 4.296875 0.078125 C 4.210938 0.015625 4.160156 -0.0625 4.140625 -0.15625 L 3.796875 -1.84375 L 1.6875 -1.84375 L 1.359375 -0.15625 C 1.335938 -0.0625 1.285156 0.015625 1.203125 0.078125 C 1.117188 0.148438 1.023438 0.1875 0.921875 0.1875 L 0.84375 0.1875 C 0.726562 0.15625 0.640625 0.09375 0.578125 0 C 0.515625 -0.101562 0.492188 -0.21875 0.515625 -0.34375 L 2.328125 -9.328125 C 2.335938 -9.359375 2.347656 -9.378906 2.359375 -9.390625 L 2.359375 -9.40625 C 2.367188 -9.457031 2.390625 -9.488281 2.421875 -9.5 L 2.421875 -9.53125 L 2.4375 -9.53125 L 2.4375 -9.5625 L 2.46875 -9.5625 C 2.488281 -9.582031 2.503906 -9.597656 2.515625 -9.609375 C 2.535156 -9.617188 2.5625 -9.628906 2.59375 -9.640625 C 2.613281 -9.648438 2.632812 -9.65625 2.65625 -9.65625 C 2.675781 -9.65625 2.695312 -9.660156 2.71875 -9.671875 L 2.765625 -9.671875 C 2.785156 -9.660156 2.804688 -9.65625 2.828125 -9.65625 C 2.847656 -9.65625 2.867188 -9.648438 2.890625 -9.640625 L 2.90625 -9.640625 C 2.9375 -9.628906 2.957031 -9.617188 2.96875 -9.609375 C 2.988281 -9.597656 3.007812 -9.582031 3.03125 -9.5625 L 3.0625 -9.5625 L 3.0625 -9.53125 C 3.0625 -9.53125 3.066406 -9.519531 3.078125 -9.5 C 3.085938 -9.488281 3.097656 -9.472656 3.109375 -9.453125 C 3.128906 -9.441406 3.140625 -9.425781 3.140625 -9.40625 L 3.140625 -9.390625 C 3.148438 -9.378906 3.15625 -9.359375 3.15625 -9.328125 Z M 3.625 -2.6875 L 2.734375 -7.078125 L 1.859375 -2.6875 Z M 3.625 -2.6875 "/></g></g></g><g fill="#ffde59" fill-opacity="1"><g transform="translate(240.118201, 285.370791)"><g><path d="M 5.59375 -0.109375 C 5.59375 -0.109375 5.585938 -0.109375 5.578125 -0.109375 C 5.566406 -0.109375 5.5625 -0.101562 5.5625 -0.09375 L 5.546875 -0.09375 C 5.546875 -0.09375 5.539062 -0.0859375 5.53125 -0.078125 C 5.53125 -0.0664062 5.53125 -0.0625 5.53125 -0.0625 L 5.515625 -0.046875 L 5.5 -0.046875 C 5.5 -0.0351562 5.492188 -0.03125 5.484375 -0.03125 L 5.453125 -0.03125 L 5.453125 -0.015625 C 5.410156 0.00390625 5.375 0.015625 5.34375 0.015625 C 5.320312 0.0234375 5.289062 0.03125 5.25 0.03125 L 5.1875 0.03125 C 5.164062 0.03125 5.148438 0.0234375 5.140625 0.015625 L 5.125 0.015625 C 5.101562 0.00390625 5.085938 0 5.078125 0 C 5.078125 0 5.070312 -0.00390625 5.0625 -0.015625 C 5.050781 -0.0234375 5.039062 -0.03125 5.03125 -0.03125 C 5.019531 -0.03125 5.007812 -0.03125 5 -0.03125 L 4.984375 -0.046875 C 4.984375 -0.046875 4.984375 -0.0507812 4.984375 -0.0625 L 4.96875 -0.0625 C 4.96875 -0.0703125 4.960938 -0.078125 4.953125 -0.078125 C 4.953125 -0.078125 4.945312 -0.0820312 4.9375 -0.09375 L 4.921875 -0.109375 L 4.90625 -0.109375 L 4.90625 -0.125 C 4.894531 -0.132812 4.890625 -0.144531 4.890625 -0.15625 C 4.878906 -0.15625 4.875 -0.160156 4.875 -0.171875 L 4.859375 -0.1875 C 4.847656 -0.1875 4.84375 -0.195312 4.84375 -0.21875 C 4.84375 -0.226562 4.84375 -0.234375 4.84375 -0.234375 C 4.84375 -0.242188 4.835938 -0.253906 4.828125 -0.265625 L 1.90625 -6.96875 L 1.90625 -0.421875 C 1.90625 -0.304688 1.863281 -0.203125 1.78125 -0.109375 C 1.695312 -0.015625 1.585938 0.03125 1.453125 0.03125 C 1.335938 0.03125 1.234375 -0.015625 1.140625 -0.109375 C 1.046875 -0.203125 1 -0.304688 1 -0.421875 L 1 -9.265625 L 1.015625 -9.265625 L 1.015625 -9.328125 C 1.015625 -9.328125 1.019531 -9.328125 1.03125 -9.328125 L 1.03125 -9.359375 C 1.039062 -9.359375 1.046875 -9.363281 1.046875 -9.375 C 1.046875 -9.382812 1.046875 -9.390625 1.046875 -9.390625 C 1.046875 -9.390625 1.046875 -9.394531 1.046875 -9.40625 L 1.0625 -9.40625 L 1.0625 -9.421875 C 1.0625 -9.429688 1.066406 -9.4375 1.078125 -9.4375 L 1.078125 -9.453125 C 1.078125 -9.453125 1.082031 -9.457031 1.09375 -9.46875 L 1.109375 -9.484375 C 1.109375 -9.484375 1.113281 -9.484375 1.125 -9.484375 C 1.125 -9.492188 1.125 -9.5 1.125 -9.5 C 1.125 -9.5 1.125 -9.503906 1.125 -9.515625 C 1.132812 -9.515625 1.140625 -9.519531 1.140625 -9.53125 L 1.15625 -9.53125 L 1.1875 -9.5625 C 1.195312 -9.5625 1.203125 -9.5625 1.203125 -9.5625 L 1.21875 -9.578125 L 1.234375 -9.578125 L 1.25 -9.59375 L 1.265625 -9.59375 C 1.273438 -9.613281 1.289062 -9.625 1.3125 -9.625 C 1.332031 -9.625 1.347656 -9.628906 1.359375 -9.640625 L 1.375 -9.640625 C 1.394531 -9.640625 1.429688 -9.640625 1.484375 -9.640625 L 1.515625 -9.640625 C 1.523438 -9.640625 1.53125 -9.640625 1.53125 -9.640625 L 1.59375 -9.640625 C 1.59375 -9.628906 1.597656 -9.625 1.609375 -9.625 C 1.609375 -9.625 1.613281 -9.617188 1.625 -9.609375 L 1.65625 -9.609375 L 1.65625 -9.59375 C 1.664062 -9.59375 1.675781 -9.585938 1.6875 -9.578125 L 1.703125 -9.578125 C 1.703125 -9.566406 1.707031 -9.5625 1.71875 -9.5625 L 1.734375 -9.5625 L 1.734375 -9.546875 L 1.75 -9.546875 C 1.75 -9.535156 1.753906 -9.53125 1.765625 -9.53125 C 1.765625 -9.519531 1.769531 -9.515625 1.78125 -9.515625 C 1.789062 -9.503906 1.796875 -9.492188 1.796875 -9.484375 C 1.804688 -9.484375 1.8125 -9.484375 1.8125 -9.484375 L 1.8125 -9.46875 L 1.828125 -9.46875 L 1.828125 -9.453125 C 1.828125 -9.441406 1.832031 -9.4375 1.84375 -9.4375 L 1.84375 -9.421875 C 1.84375 -9.421875 1.847656 -9.414062 1.859375 -9.40625 C 1.867188 -9.40625 1.875 -9.398438 1.875 -9.390625 C 1.875 -9.390625 1.878906 -9.378906 1.890625 -9.359375 L 4.796875 -2.640625 L 4.796875 -9.1875 C 4.796875 -9.3125 4.835938 -9.414062 4.921875 -9.5 C 5.015625 -9.59375 5.125 -9.640625 5.25 -9.640625 C 5.375 -9.640625 5.476562 -9.59375 5.5625 -9.5 C 5.65625 -9.414062 5.703125 -9.3125 5.703125 -9.1875 L 5.703125 -0.34375 C 5.703125 -0.34375 5.695312 -0.34375 5.6875 -0.34375 L 5.6875 -0.265625 C 5.675781 -0.265625 5.671875 -0.257812 5.671875 -0.25 L 5.671875 -0.234375 L 5.65625 -0.21875 L 5.65625 -0.203125 C 5.644531 -0.203125 5.640625 -0.195312 5.640625 -0.1875 L 5.625 -0.1875 L 5.625 -0.171875 L 5.609375 -0.15625 C 5.609375 -0.144531 5.609375 -0.140625 5.609375 -0.140625 C 5.609375 -0.128906 5.601562 -0.125 5.59375 -0.125 C 5.59375 -0.125 5.59375 -0.117188 5.59375 -0.109375 Z M 5.59375 -0.109375 "/></g></g></g><g fill="#ffde59" fill-opacity="1"><g transform="translate(249.307176, 285.370791)"><g><path d="M 3.28125 0.0625 L 1.578125 0.0625 C 1.441406 0.0625 1.332031 0.0195312 1.25 -0.0625 C 1.164062 -0.15625 1.125 -0.265625 1.125 -0.390625 L 1.125 -9.15625 C 1.125 -9.269531 1.164062 -9.375 1.25 -9.46875 C 1.332031 -9.5625 1.441406 -9.609375 1.578125 -9.609375 L 3.28125 -9.609375 C 3.539062 -9.609375 3.796875 -9.5625 4.046875 -9.46875 C 4.304688 -9.375 4.535156 -9.234375 4.734375 -9.046875 C 4.929688 -8.859375 5.09375 -8.613281 5.21875 -8.3125 C 5.34375 -8.019531 5.40625 -7.675781 5.40625 -7.28125 L 5.40625 -2.28125 C 5.40625 -1.863281 5.34375 -1.507812 5.21875 -1.21875 C 5.09375 -0.9375 4.929688 -0.695312 4.734375 -0.5 C 4.535156 -0.300781 4.304688 -0.15625 4.046875 -0.0625 C 3.796875 0.0195312 3.539062 0.0625 3.28125 0.0625 Z M 2.03125 -0.859375 L 3.28125 -0.859375 C 3.601562 -0.859375 3.875 -0.957031 4.09375 -1.15625 C 4.363281 -1.40625 4.5 -1.78125 4.5 -2.28125 L 4.5 -7.28125 C 4.5 -7.757812 4.363281 -8.128906 4.09375 -8.390625 C 3.863281 -8.597656 3.59375 -8.703125 3.28125 -8.703125 L 2.03125 -8.703125 Z M 2.03125 -0.859375 "/></g></g></g><g fill="#ffde59" fill-opacity="1"><g transform="translate(258.106275, 285.370791)"><g><path d="M 4.90625 -0.859375 C 5.039062 -0.859375 5.148438 -0.8125 5.234375 -0.71875 C 5.328125 -0.625 5.375 -0.515625 5.375 -0.390625 C 5.375 -0.265625 5.328125 -0.15625 5.234375 -0.0625 C 5.148438 0.0195312 5.039062 0.0625 4.90625 0.0625 L 1.46875 0.0625 C 1.34375 0.0625 1.234375 0.0195312 1.140625 -0.0625 C 1.046875 -0.15625 1 -0.265625 1 -0.390625 L 1 -9.15625 C 1 -9.269531 1.046875 -9.375 1.140625 -9.46875 C 1.234375 -9.5625 1.34375 -9.609375 1.46875 -9.609375 L 4.90625 -9.609375 C 5.039062 -9.609375 5.148438 -9.5625 5.234375 -9.46875 C 5.328125 -9.375 5.375 -9.269531 5.375 -9.15625 C 5.375 -9.019531 5.328125 -8.90625 5.234375 -8.8125 C 5.148438 -8.726562 5.039062 -8.6875 4.90625 -8.6875 L 1.921875 -8.6875 L 1.921875 -4.6875 L 4.171875 -4.6875 C 4.304688 -4.6875 4.414062 -4.640625 4.5 -4.546875 C 4.582031 -4.460938 4.625 -4.351562 4.625 -4.21875 C 4.625 -4.101562 4.582031 -4 4.5 -3.90625 C 4.414062 -3.8125 4.304688 -3.765625 4.171875 -3.765625 L 1.921875 -3.765625 L 1.921875 -0.859375 Z M 4.90625 -0.859375 "/></g></g></g><g fill="#ffde59" fill-opacity="1"><g transform="translate(32.374983, 257.446315)"><g><path d="M 26.234375 -26.765625 C 26.421875 -27.191406 26.660156 -27.503906 26.953125 -27.703125 C 27.253906 -27.898438 27.628906 -28 28.078125 -28 L 33.15625 -28 C 34.226562 -28 34.765625 -27.46875 34.765625 -26.40625 L 34.765625 -1.59375 C 34.765625 -0.53125 34.226562 0 33.15625 0 L 29.953125 0 C 28.890625 0 28.359375 -0.53125 28.359375 -1.59375 L 28.359375 -15.875 L 22.28125 -1.234375 C 21.9375 -0.410156 21.3125 0 20.40625 0 L 17.3125 0 C 16.40625 0 15.78125 -0.410156 15.4375 -1.234375 L 9.359375 -15.875 L 9.359375 -1.59375 C 9.359375 -0.53125 8.828125 0 7.765625 0 L 4.5625 0 C 3.488281 0 2.953125 -0.53125 2.953125 -1.59375 L 2.953125 -26.40625 C 2.953125 -27.46875 3.488281 -28 4.5625 -28 L 9.640625 -28 C 10.085938 -28 10.457031 -27.898438 10.75 -27.703125 C 11.050781 -27.503906 11.296875 -27.191406 11.484375 -26.765625 L 18.875 -9.4375 Z M 18.953125 -3.234375 L 9.046875 -25.6875 L 5.921875 -25.6875 L 5.921875 -2.3125 L 6.875 -2.3125 L 6.875 -24.71875 L 8.203125 -24.71875 L 18.15625 -2.3125 L 19.71875 -2.3125 L 29.640625 -24.71875 L 31 -24.71875 L 31 -2.3125 L 31.953125 -2.3125 L 31.953125 -25.6875 L 28.84375 -25.6875 Z M 18.953125 -3.234375 "/></g></g></g><g fill="#ffde59" fill-opacity="1"><g transform="translate(86.0912, 257.446315)"><g><path d="M 14.15625 -28 C 18.34375 -28 21.703125 -27.285156 24.234375 -25.859375 C 26.773438 -24.429688 28.046875 -21.796875 28.046875 -17.953125 C 28.046875 -11.023438 23.414062 -7.5625 14.15625 -7.5625 L 9.5625 -7.5625 L 9.5625 -1.59375 C 9.5625 -0.53125 9.023438 0 7.953125 0 L 4.5625 0 C 3.488281 0 2.953125 -0.53125 2.953125 -1.59375 L 2.953125 -26.40625 C 2.953125 -27.46875 3.488281 -28 4.5625 -28 Z M 5.765625 -25.6875 L 5.765625 -2.3125 L 6.765625 -2.3125 L 6.765625 -9.875 L 14.15625 -9.875 C 18.019531 -9.875 20.828125 -10.515625 22.578125 -11.796875 C 24.328125 -13.078125 25.203125 -15.128906 25.203125 -17.953125 C 25.203125 -20.648438 24.320312 -22.613281 22.5625 -23.84375 C 20.800781 -25.070312 17.972656 -25.6875 14.078125 -25.6875 Z M 6.765625 -10.84375 L 6.765625 -24.765625 L 14.078125 -24.71875 C 17.628906 -24.71875 20.207031 -24.179688 21.8125 -23.109375 C 23.425781 -22.046875 24.234375 -20.328125 24.234375 -17.953125 C 24.234375 -15.453125 23.429688 -13.640625 21.828125 -12.515625 C 20.234375 -11.398438 17.675781 -10.84375 14.15625 -10.84375 Z M 14.15625 -13.359375 C 16.820312 -13.359375 18.664062 -13.773438 19.6875 -14.609375 C 20.71875 -15.453125 21.234375 -16.566406 21.234375 -17.953125 C 21.234375 -18.941406 21.039062 -19.734375 20.65625 -20.328125 C 20.269531 -20.929688 19.5625 -21.394531 18.53125 -21.71875 C 17.507812 -22.039062 16.050781 -22.203125 14.15625 -22.203125 L 9.5625 -22.203125 L 9.5625 -13.359375 Z M 14.15625 -13.359375 "/></g></g></g><g fill="#ffde59" fill-opacity="1"><g transform="translate(131.20827, 257.446315)"><g><path d="M 27.484375 -1.921875 C 27.640625 -1.597656 27.71875 -1.316406 27.71875 -1.078125 C 27.71875 -0.753906 27.585938 -0.492188 27.328125 -0.296875 C 27.078125 -0.0976562 26.738281 0 26.3125 0 L 22.84375 0 C 21.957031 0 21.328125 -0.375 20.953125 -1.125 L 16.875 -8.84375 C 15.65625 -8.789062 14.75 -8.765625 14.15625 -8.765625 L 9.5625 -8.765625 L 9.5625 -1.59375 C 9.5625 -0.53125 9.023438 0 7.953125 0 L 4.5625 0 C 3.488281 0 2.953125 -0.53125 2.953125 -1.59375 L 2.953125 -26.40625 C 2.953125 -27.46875 3.488281 -28 4.5625 -28 L 14.15625 -28 C 16.90625 -28 19.269531 -27.765625 21.25 -27.296875 C 23.238281 -26.828125 24.867188 -25.898438 26.140625 -24.515625 C 27.410156 -23.128906 28.046875 -21.144531 28.046875 -18.5625 C 28.046875 -14.53125 26.378906 -11.753906 23.046875 -10.234375 Z M 25 -18.6875 C 25 -21.1875 24.128906 -22.988281 22.390625 -24.09375 C 20.660156 -25.207031 17.878906 -25.765625 14.046875 -25.765625 L 5.765625 -25.796875 L 5.765625 -2.40625 L 6.71875 -2.40625 L 6.71875 -11.28125 L 14.125 -11.28125 C 14.863281 -11.28125 15.703125 -11.3125 16.640625 -11.375 C 17.578125 -11.445312 18.148438 -11.507812 18.359375 -11.5625 L 23.234375 -2.40625 L 24.3125 -2.40625 L 19.3125 -11.71875 C 21.289062 -12.144531 22.734375 -12.910156 23.640625 -14.015625 C 24.546875 -15.128906 25 -16.6875 25 -18.6875 Z M 6.765625 -24.796875 L 14.046875 -24.796875 C 17.671875 -24.796875 20.242188 -24.300781 21.765625 -23.3125 C 23.285156 -22.332031 24.046875 -20.757812 24.046875 -18.59375 C 24.046875 -16.351562 23.265625 -14.726562 21.703125 -13.71875 C 20.140625 -12.707031 17.625 -12.203125 14.15625 -12.203125 L 6.765625 -12.203125 Z M 14.15625 -14.5625 C 16.851562 -14.5625 18.707031 -14.914062 19.71875 -15.625 C 20.726562 -16.332031 21.234375 -17.3125 21.234375 -18.5625 C 21.234375 -19.46875 21.039062 -20.171875 20.65625 -20.671875 C 20.269531 -21.179688 19.570312 -21.5625 18.5625 -21.8125 C 17.550781 -22.070312 16.082031 -22.203125 14.15625 -22.203125 L 9.5625 -22.203125 L 9.5625 -14.5625 Z M 14.15625 -14.5625 "/></g></g></g><g fill="#ffde59" fill-opacity="1"><g transform="translate(176.645306, 257.446315)"><g><path d="M 24.4375 -23.796875 C 24.4375 -22.734375 23.90625 -22.203125 22.84375 -22.203125 L 9.5625 -22.203125 L 9.5625 -16.28125 L 19.234375 -16.28125 C 20.304688 -16.28125 20.84375 -15.75 20.84375 -14.6875 L 20.84375 -12.078125 C 20.84375 -11.015625 20.304688 -10.484375 19.234375 -10.484375 L 9.5625 -10.484375 L 9.5625 -5.796875 L 22.84375 -5.796875 C 23.90625 -5.796875 24.4375 -5.265625 24.4375 -4.203125 L 24.4375 -1.59375 C 24.4375 -0.53125 23.90625 0 22.84375 0 L 4.5625 0 C 3.488281 0 2.953125 -0.53125 2.953125 -1.59375 L 2.953125 -26.40625 C 2.953125 -27.46875 3.488281 -28 4.5625 -28 L 22.84375 -28 C 23.90625 -28 24.4375 -27.46875 24.4375 -26.40625 Z M 21.875 -25.59375 L 5.765625 -25.59375 L 5.765625 -2.40625 L 21.875 -2.40625 L 21.875 -3.4375 L 6.796875 -3.4375 L 6.796875 -12.875 L 18.28125 -12.875 L 18.28125 -13.921875 L 6.796875 -13.921875 L 6.796875 -24.5625 L 21.875 -24.5625 Z M 21.875 -25.59375 "/></g></g></g><g fill="#ffde59" fill-opacity="1"><g transform="translate(218.482694, 257.446315)"><g><path d="M 22.234375 -26.40625 C 22.234375 -27.46875 22.769531 -28 23.84375 -28 L 27.234375 -28 C 28.304688 -28 28.84375 -27.46875 28.84375 -26.40625 L 28.84375 -1.59375 C 28.84375 -0.53125 28.304688 0 27.234375 0 L 21.953125 0 C 21.128906 0 20.492188 -0.359375 20.046875 -1.078125 L 9.5625 -17.765625 L 9.5625 -1.59375 C 9.5625 -0.53125 9.023438 0 7.953125 0 L 4.5625 0 C 3.488281 0 2.953125 -0.53125 2.953125 -1.59375 L 2.953125 -26.40625 C 2.953125 -27.46875 3.488281 -28 4.5625 -28 L 9.59375 -28 C 10.425781 -28 11.066406 -27.640625 11.515625 -26.921875 L 22.234375 -9.875 Z M 25.046875 -3.28125 L 23.6875 -3.28125 L 8.59375 -25.6875 L 5.84375 -25.6875 L 5.84375 -2.3125 L 6.796875 -2.3125 L 6.796875 -24.71875 L 7.921875 -24.71875 L 23.125 -2.3125 L 26 -2.3125 L 26 -25.6875 L 25.046875 -25.6875 Z M 25.046875 -3.28125 "/></g></g></g><g fill="#ffde59" fill-opacity="1"><g transform="translate(266.279478, 257.446315)"><g><path d="M 15.359375 -28 C 19.921875 -28 23.375 -26.835938 25.71875 -24.515625 C 28.0625 -22.203125 29.234375 -18.710938 29.234375 -14.046875 C 29.234375 -9.347656 28.0625 -5.832031 25.71875 -3.5 C 23.375 -1.164062 19.921875 0 15.359375 0 L 4.5625 0 C 3.488281 0 2.953125 -0.53125 2.953125 -1.59375 L 2.953125 -26.40625 C 2.953125 -27.46875 3.488281 -28 4.5625 -28 Z M 5.796875 -25.4375 L 5.796875 -2.59375 L 15.3125 -2.59375 C 19 -2.59375 21.78125 -3.546875 23.65625 -5.453125 C 25.539062 -7.359375 26.484375 -10.222656 26.484375 -14.046875 C 26.484375 -17.828125 25.535156 -20.671875 23.640625 -22.578125 C 21.742188 -24.484375 18.96875 -25.4375 15.3125 -25.4375 Z M 6.765625 -3.5625 L 6.765625 -24.484375 L 15.3125 -24.484375 C 18.539062 -24.484375 21.046875 -23.59375 22.828125 -21.8125 C 24.617188 -20.039062 25.515625 -17.453125 25.515625 -14.046875 C 25.515625 -10.597656 24.617188 -7.988281 22.828125 -6.21875 C 21.046875 -4.445312 18.539062 -3.5625 15.3125 -3.5625 Z M 15.359375 -6 C 20.078125 -6 22.4375 -8.679688 22.4375 -14.046875 C 22.4375 -16.765625 21.84375 -18.769531 20.65625 -20.0625 C 19.46875 -21.351562 17.703125 -22 15.359375 -22 L 9.5625 -22 L 9.5625 -6 Z M 15.359375 -6 "/></g></g></g><g fill="#ffde59" fill-opacity="1"><g transform="translate(313.19636, 257.446315)"><g><path d="M 27.484375 -1.921875 C 27.640625 -1.597656 27.71875 -1.316406 27.71875 -1.078125 C 27.71875 -0.753906 27.585938 -0.492188 27.328125 -0.296875 C 27.078125 -0.0976562 26.738281 0 26.3125 0 L 22.84375 0 C 21.957031 0 21.328125 -0.375 20.953125 -1.125 L 16.875 -8.84375 C 15.65625 -8.789062 14.75 -8.765625 14.15625 -8.765625 L 9.5625 -8.765625 L 9.5625 -1.59375 C 9.5625 -0.53125 9.023438 0 7.953125 0 L 4.5625 0 C 3.488281 0 2.953125 -0.53125 2.953125 -1.59375 L 2.953125 -26.40625 C 2.953125 -27.46875 3.488281 -28 4.5625 -28 L 14.15625 -28 C 16.90625 -28 19.269531 -27.765625 21.25 -27.296875 C 23.238281 -26.828125 24.867188 -25.898438 26.140625 -24.515625 C 27.410156 -23.128906 28.046875 -21.144531 28.046875 -18.5625 C 28.046875 -14.53125 26.378906 -11.753906 23.046875 -10.234375 Z M 25 -18.6875 C 25 -21.1875 24.128906 -22.988281 22.390625 -24.09375 C 20.660156 -25.207031 17.878906 -25.765625 14.046875 -25.765625 L 5.765625 -25.796875 L 5.765625 -2.40625 L 6.71875 -2.40625 L 6.71875 -11.28125 L 14.125 -11.28125 C 14.863281 -11.28125 15.703125 -11.3125 16.640625 -11.375 C 17.578125 -11.445312 18.148438 -11.507812 18.359375 -11.5625 L 23.234375 -2.40625 L 24.3125 -2.40625 L 19.3125 -11.71875 C 21.289062 -12.144531 22.734375 -12.910156 23.640625 -14.015625 C 24.546875 -15.128906 25 -16.6875 25 -18.6875 Z M 6.765625 -24.796875 L 14.046875 -24.796875 C 17.671875 -24.796875 20.242188 -24.300781 21.765625 -23.3125 C 23.285156 -22.332031 24.046875 -20.757812 24.046875 -18.59375 C 24.046875 -16.351562 23.265625 -14.726562 21.703125 -13.71875 C 20.140625 -12.707031 17.625 -12.203125 14.15625 -12.203125 L 6.765625 -12.203125 Z M 14.15625 -14.5625 C 16.851562 -14.5625 18.707031 -14.914062 19.71875 -15.625 C 20.726562 -16.332031 21.234375 -17.3125 21.234375 -18.5625 C 21.234375 -19.46875 21.039062 -20.171875 20.65625 -20.671875 C 20.269531 -21.179688 19.570312 -21.5625 18.5625 -21.8125 C 17.550781 -22.070312 16.082031 -22.203125 14.15625 -22.203125 L 9.5625 -22.203125 L 9.5625 -14.5625 Z M 14.15625 -14.5625 "/></g></g></g></svg>